<?xml version="1.0" standalone="no"?>
<!DOCTYPE svg PUBLIC "-//W3C//DTD SVG 20010904//EN"
 "http://www.w3.org/TR/2001/REC-SVG-20010904/DTD/svg10.dtd">
<svg version="1.0" xmlns="http://www.w3.org/2000/svg"
 width="1200.000000pt" height="800.000000pt" viewBox="0 0 1200.000000 800.000000"
 preserveAspectRatio="xMidYMid meet">
<metadata>
Created by potrace 1.16, written by Peter Selinger 2001-2019
</metadata>
<g transform="translate(0.000000,800.000000) scale(0.100000,-0.100000)"
fill="#FFFFFF" stroke="none">
<path d="M9159 5292 c-29 -10 -101 -102 -79 -102 6 0 8 -5 5 -10 -4 -6 -2 -25
4 -43 12 -37 21 -143 27 -306 2 -63 8 -146 13 -184 5 -38 7 -75 5 -82 -3 -7
-1 -16 5 -20 6 -3 11 -32 11 -63 0 -47 -4 -59 -21 -70 -17 -11 -20 -20 -16
-47 6 -36 -18 -66 -64 -80 -13 -4 -36 -16 -51 -26 -14 -11 -33 -19 -42 -19 -8
0 -50 -18 -93 -39 -183 -92 -198 -97 -350 -130 -73 -16 -83 -16 -88 -3 -7 18
4 102 15 117 4 6 15 46 24 90 10 44 27 114 37 157 10 42 19 89 19 105 0 15 10
48 21 73 26 57 35 130 20 158 -13 25 -57 30 -83 10 -22 -17 -56 -142 -73 -273
-1 -11 -5 -27 -8 -35 -10 -28 -19 -75 -27 -140 -4 -36 -13 -78 -20 -95 -7 -16
-15 -55 -17 -85 -2 -30 -11 -70 -21 -90 -14 -29 -25 -37 -67 -48 -102 -26
-128 -37 -157 -64 -23 -21 -34 -26 -46 -18 -10 5 -13 10 -9 10 5 0 -3 21 -17
46 -14 26 -26 60 -26 76 0 16 -5 39 -12 51 -7 12 -13 46 -14 75 -1 29 -7 58
-13 65 -7 10 -7 17 0 24 13 13 3 83 -11 83 -12 0 -13 37 -1 44 4 3 7 18 6 33
-1 15 -3 37 -3 49 -1 11 -11 30 -22 42 -12 12 -18 22 -14 22 4 0 -1 9 -11 20
-9 10 -15 26 -12 34 7 17 -34 61 -63 69 -13 3 -24 -3 -35 -19 -18 -28 -59 -32
-108 -10 -42 18 -151 50 -262 76 -49 12 -106 29 -125 38 -33 14 -35 19 -35 59
0 41 2 45 42 64 38 18 57 20 240 16 114 -2 206 -7 218 -14 11 -5 42 -13 68
-16 44 -6 50 -4 84 27 l37 33 -32 31 c-24 24 -44 32 -99 40 -37 6 -84 14 -103
17 -44 8 -39 8 -271 4 -175 -3 -197 -2 -213 14 -17 16 -40 22 -79 19 -10 -1
-29 -14 -42 -29 -22 -27 -27 -28 -117 -28 -109 0 -156 18 -187 71 -24 40 -63
59 -91 44 -11 -6 -28 -30 -38 -54 -11 -24 -24 -46 -28 -49 -19 -11 -128 -19
-314 -23 -107 -2 -215 -6 -240 -8 -200 -20 -213 -19 -255 10 -46 31 -86 35
-114 10 -42 -38 -196 -15 -280 41 -66 45 -146 16 -139 -50 2 -29 40 -77 61
-77 4 0 7 -22 7 -50 0 -38 4 -50 15 -50 10 0 15 10 15 29 0 56 5 60 58 43 26
-8 55 -19 64 -23 10 -5 24 -9 32 -9 8 0 36 -11 62 -25 26 -14 61 -29 78 -33
25 -7 34 -17 48 -58 17 -48 20 -157 4 -182 -7 -11 -52 -6 -96 11 -8 3 -44 8
-80 12 -36 3 -103 12 -150 20 -47 8 -186 19 -309 25 -333 16 -399 24 -500 57
-100 33 -173 29 -208 -11 -42 -49 -27 -98 61 -191 32 -35 66 -96 72 -134 3
-14 16 -42 30 -62 13 -19 24 -41 24 -48 0 -7 11 -37 25 -67 14 -30 25 -57 25
-60 0 -17 -260 23 -323 49 -20 9 -38 16 -40 15 -1 0 -11 2 -22 6 -24 7 -48 53
-33 62 6 4 6 9 -2 14 -14 9 -6 95 10 105 6 3 6 15 0 29 -5 14 -5 27 1 33 4 4
11 25 13 46 4 29 0 43 -16 59 -17 17 -19 24 -9 37 23 32 24 43 6 79 -19 39
-25 67 -30 147 -2 28 -9 69 -16 93 -11 34 -11 46 -1 60 26 36 52 77 52 83 0 3
-14 19 -31 35 -16 16 -48 46 -69 67 -29 28 -47 37 -73 37 -56 0 -109 -55 -87
-91 5 -7 2 -25 -6 -41 -11 -21 -12 -33 -4 -48 6 -11 14 -20 18 -20 14 0 11
-71 -4 -106 -8 -18 -14 -37 -13 -41 1 -5 0 -10 -1 -13 -1 -3 -4 -24 -6 -48 -3
-23 -18 -83 -35 -132 -16 -49 -29 -96 -29 -105 0 -24 -24 -95 -32 -95 -5 0 -8
-7 -8 -15 0 -9 -9 -15 -23 -15 -35 0 -75 -22 -87 -48 -8 -18 -6 -32 11 -64 11
-22 30 -50 41 -62 17 -18 19 -30 14 -90 -8 -87 -23 -146 -39 -146 -18 0 -27 9
-89 85 -31 39 -68 83 -82 99 -14 16 -45 56 -68 88 -24 33 -59 80 -79 105 -20
24 -43 57 -50 71 -8 15 -28 43 -45 62 -97 108 -154 169 -191 203 -40 37 -42
41 -36 82 5 38 2 47 -20 69 -18 18 -37 26 -62 26 -22 0 -50 10 -73 25 -50 34
-106 34 -128 -1 -16 -24 -16 -27 6 -70 12 -25 20 -47 19 -48 -24 -20 -114 -76
-121 -76 -6 0 -23 -11 -40 -25 -16 -14 -40 -25 -52 -25 -12 0 -40 -16 -62 -35
-21 -19 -43 -35 -47 -35 -5 0 -21 -8 -35 -18 -15 -10 -43 -25 -62 -32 -19 -7
-44 -22 -56 -32 -11 -10 -26 -18 -32 -18 -18 0 -104 -40 -127 -60 -11 -9 -38
-22 -60 -29 -22 -8 -71 -28 -110 -46 -38 -18 -88 -40 -110 -49 -22 -9 -53 -23
-68 -31 -16 -8 -35 -15 -42 -15 -8 0 -20 -6 -27 -12 -7 -7 -36 -24 -63 -36
-28 -13 -57 -28 -65 -33 -8 -5 -22 -12 -30 -15 -165 -69 -258 -138 -265 -195
-6 -41 25 -92 65 -109 32 -13 34 -18 31 -90 -3 -99 44 -96 51 4 2 36 7 69 12
73 4 4 56 9 114 10 59 1 127 4 152 7 138 16 246 17 290 2 25 -8 88 -26 140
-41 52 -14 115 -34 140 -44 57 -23 113 -41 130 -41 7 0 21 -6 29 -14 9 -8 37
-21 62 -29 25 -9 69 -30 98 -46 29 -17 55 -31 60 -31 4 0 16 -9 26 -20 10 -11
24 -20 31 -20 7 0 28 -10 46 -22 88 -60 199 -98 269 -93 57 3 72 17 57 49 -10
23 -77 69 -117 81 -14 4 -98 43 -189 86 -90 44 -166 79 -169 79 -3 0 -39 16
-80 35 -41 19 -81 35 -89 35 -7 0 -39 12 -71 26 -84 37 -306 110 -393 128 -41
9 -120 18 -175 21 -121 6 -175 11 -183 20 -9 8 11 38 34 50 10 6 44 26 74 46
30 19 74 41 98 49 23 7 42 16 42 20 0 3 33 21 72 39 40 18 152 71 248 118 96
47 186 90 200 97 14 6 29 17 33 23 4 7 15 13 24 13 14 0 80 35 93 49 11 13
226 115 237 113 6 -2 14 2 17 7 3 5 15 7 26 4 11 -3 20 0 20 6 0 20 42 12 89
-17 70 -44 243 -220 266 -272 11 -25 36 -61 56 -80 33 -33 145 -168 179 -216
8 -12 33 -46 55 -76 77 -104 105 -157 120 -232 13 -61 11 -83 -12 -126 -7 -14
-13 -32 -13 -41 0 -8 -4 -19 -9 -25 -5 -5 -11 -29 -13 -54 -3 -25 -15 -81 -27
-125 -13 -44 -24 -84 -25 -90 -1 -5 -5 -15 -9 -22 -4 -6 -9 -25 -11 -43 -2
-17 -11 -39 -20 -49 -9 -9 -16 -22 -16 -27 -1 -5 -9 -27 -20 -49 -11 -22 -19
-54 -20 -72 0 -17 -4 -34 -9 -37 -4 -3 -12 -20 -16 -38 -4 -18 -9 -40 -11 -48
-2 -8 -6 -44 -9 -80 -7 -74 6 -98 63 -118 28 -10 35 -8 61 14 36 30 49 69 52
149 4 88 27 177 50 193 11 8 18 20 15 27 -2 7 0 17 5 22 13 13 20 46 24 118 2
33 6 71 10 85 4 14 8 45 11 69 5 53 37 121 77 163 9 10 17 32 17 48 0 32 16
72 49 125 23 38 18 96 -12 145 -23 38 -23 46 0 100 9 19 15 41 14 48 -3 18 24
76 42 90 17 15 104 -17 128 -46 21 -27 30 -133 30 -367 0 -99 0 -189 0 -200
-1 -24 -39 -68 -96 -109 -22 -17 -42 -33 -45 -37 -7 -9 -112 -74 -132 -82 -19
-7 -78 -84 -78 -102 0 -40 100 -76 154 -55 14 5 58 48 97 95 40 47 78 85 83
85 6 0 24 -16 39 -36 26 -31 33 -35 70 -32 36 3 44 7 57 36 16 33 17 56 6 123
-5 34 -2 40 52 93 31 31 69 64 83 74 61 41 119 86 119 94 0 4 6 8 13 8 7 0 24
11 39 25 15 14 32 25 38 25 5 0 10 5 10 10 0 6 7 10 15 10 8 0 15 5 15 10 0 6
14 10 30 10 17 0 30 5 30 12 0 32 20 -13 26 -57 11 -86 13 -107 19 -229 3 -65
7 -121 8 -125 6 -12 -5 -121 -12 -121 -4 0 -6 -13 -3 -30 2 -16 8 -30 13 -30
4 0 23 -13 41 -28 21 -19 49 -31 78 -35 44 -6 48 -4 100 43 30 27 52 49 48 50
-4 0 9 17 30 37 20 20 42 46 47 57 6 12 20 25 31 31 27 13 54 41 54 54 0 6 6
11 14 11 8 0 16 5 18 11 5 16 108 75 173 99 11 4 34 13 50 20 17 8 35 14 40
15 6 2 45 14 88 29 42 14 86 26 97 26 11 0 20 5 20 10 0 6 6 10 13 10 8 0 22
9 32 20 24 27 31 25 40 -7 14 -55 18 -89 17 -185 0 -54 4 -100 9 -104 5 -3 9
-17 9 -30 0 -16 5 -24 13 -21 6 2 27 -2 45 -10 17 -7 32 -9 32 -4 0 5 11 12
25 15 14 4 25 10 25 15 0 4 9 19 21 32 24 28 21 46 -22 137 -17 34 -29 70 -28
80 1 9 0 19 -1 22 -16 42 -27 219 -17 266 10 41 10 41 41 29 17 -6 58 -24 91
-39 146 -68 164 -76 170 -76 3 0 32 -12 63 -27 31 -14 63 -28 71 -29 8 -1 17
-7 20 -12 3 -5 28 -21 55 -36 26 -15 54 -32 61 -39 7 -7 35 -25 63 -42 28 -16
58 -43 68 -60 10 -16 39 -51 66 -76 26 -26 50 -59 54 -73 6 -26 10 -170 6
-216 -1 -14 -2 -32 -2 -40 1 -8 -1 -33 -4 -55 -3 -22 0 -58 5 -80 6 -22 10
-41 8 -42 -2 -1 5 -9 16 -17 29 -22 67 -19 106 7 31 21 34 27 33 72 -1 28 -8
88 -16 134 -10 56 -13 139 -11 247 2 121 -1 174 -12 211 -10 33 -15 96 -15
205 0 155 6 182 33 160 7 -5 39 -17 72 -26 136 -38 166 -53 173 -86 2 -8 6
-89 9 -180 3 -91 8 -198 12 -239 7 -68 6 -76 -13 -95 l-21 -21 21 -3 c12 -2
41 -21 65 -43 l44 -41 0 -106 c0 -59 -4 -117 -8 -129 -6 -17 -5 -23 6 -23 23
0 27 23 27 148 l0 116 33 27 c28 24 32 33 32 75 0 35 -5 53 -18 64 -10 8 -23
33 -28 55 -23 88 -51 312 -43 342 7 26 35 38 61 25 10 -5 29 -14 43 -20 33
-13 217 -99 255 -119 17 -9 77 -40 135 -70 58 -30 112 -61 121 -69 8 -8 19
-14 23 -14 4 0 24 -16 44 -35 20 -19 42 -35 49 -35 6 0 31 -22 55 -49 33 -37
48 -63 57 -105 7 -31 10 -60 6 -66 -11 -18 26 -78 55 -90 37 -15 43 -34 40
-128 -3 -99 -3 -102 15 -102 12 0 15 18 15 100 0 92 2 100 19 100 40 0 51 -11
51 -51 0 -28 4 -39 15 -39 11 0 15 11 15 38 0 30 7 44 34 70 37 34 39 65 7 90
-9 7 -17 30 -18 50 -1 20 -7 61 -12 91 -10 53 -9 151 2 168 3 5 6 28 5 52 0
29 6 49 20 64 11 12 18 29 17 37 -3 20 90 25 119 7 12 -8 39 -17 62 -20 43 -7
207 -76 227 -96 6 -6 16 -11 22 -11 5 0 30 -16 54 -35 24 -19 60 -38 79 -41
42 -8 131 -63 131 -81 1 -7 8 -13 16 -13 9 0 19 -8 22 -17 4 -10 13 -24 20
-31 13 -13 12 -183 -2 -227 -7 -24 38 -182 57 -202 25 -25 74 -24 102 2 30 27
32 49 12 125 -33 127 -20 180 45 180 22 0 30 -5 35 -26 7 -26 1 -90 -12 -133
-5 -18 -4 -23 7 -19 10 3 16 31 21 93 7 76 12 93 34 116 14 14 28 41 30 58 4
26 1 32 -21 41 -44 17 -129 59 -149 75 -13 10 -16 20 -11 32 12 26 11 47 0 55
-7 5 -6 14 3 28 7 11 12 52 12 95 0 79 6 88 45 61 11 -7 31 -17 45 -21 70 -21
183 -78 251 -127 13 -10 56 -39 94 -64 39 -26 72 -50 75 -53 7 -9 58 -41 103
-66 54 -29 126 -88 127 -103 0 -7 12 -17 26 -22 14 -6 44 -30 66 -55 22 -25
47 -45 54 -45 8 0 14 -6 14 -13 0 -7 16 -21 35 -31 19 -10 37 -27 40 -37 4
-11 10 -19 15 -19 8 0 30 -19 154 -132 23 -21 47 -38 54 -38 7 0 25 -9 40 -20
15 -10 39 -22 55 -26 24 -5 27 -3 27 20 0 14 -4 34 -9 44 -5 9 -14 29 -20 45
-6 15 -14 27 -18 26 -21 -4 -34 2 -31 13 4 12 -32 48 -47 48 -4 0 -31 24 -60
53 -29 28 -78 70 -109 92 -32 22 -64 47 -73 55 -9 8 -31 26 -48 40 -18 14 -63
50 -100 80 -38 30 -83 64 -101 75 -54 33 -238 159 -253 173 -37 36 -130 88
-381 217 -25 13 -55 34 -68 47 -20 23 -22 29 -12 69 5 24 12 60 15 79 4 32 12
39 62 65 31 17 66 40 77 53 11 12 27 22 35 22 17 0 224 101 229 112 2 4 10 4
18 1 8 -3 14 0 14 6 0 6 8 11 18 11 10 0 28 11 41 26 22 25 71 50 165 84 51
18 126 74 126 93 0 7 7 25 15 40 31 60 -15 75 -93 30 -26 -15 -50 -31 -53 -35
-3 -5 -14 -10 -25 -13 -22 -4 -77 -32 -120 -60 -50 -34 -68 -45 -94 -57 -14
-7 -44 -25 -67 -40 -23 -15 -46 -28 -51 -28 -5 0 -20 -9 -34 -19 -13 -11 -38
-23 -54 -27 -16 -4 -36 -13 -44 -20 -8 -7 -26 -17 -40 -23 -14 -6 -32 -15 -40
-19 -68 -39 -83 -40 -103 -11 -21 30 1 69 86 149 64 62 68 67 58 94 -15 37
-14 46 4 46 8 0 15 5 15 11 0 5 -3 8 -7 6 -5 -3 -17 -1 -28 4 -17 6 -17 8 -2
8 9 1 17 5 17 11 0 6 -9 6 -25 0 -14 -5 -25 -6 -25 -2 0 4 -4 1 -9 -6 -4 -8
-27 -16 -51 -19 -42 -6 -43 -6 -38 20 3 15 0 31 -7 37 -8 7 -13 34 -13 69 1
32 -2 63 -5 68 -3 5 -2 15 3 23 5 8 4 22 -2 33 -17 32 -17 139 0 159 13 15 13
20 -1 41 -10 16 -12 28 -6 40 18 31 22 99 8 108 -11 7 -12 12 -1 29 18 30 15
78 -5 83 -17 4 -17 5 0 6 19 1 24 21 5 21 -6 0 -8 3 -5 6 3 4 1 16 -5 28 -7
11 -12 23 -11 26 3 9 -43 26 -58 22z m-2481 -415 c6 -5 12 -19 12 -31 0 -11 7
-33 14 -48 9 -17 11 -30 5 -34 -5 -3 -6 -10 -3 -16 8 -13 17 -544 11 -698 0
-8 4 -53 8 -100 9 -88 8 -302 -1 -332 -10 -34 -37 -28 -133 28 -142 84 -246
140 -391 207 -14 7 -27 15 -30 18 -3 3 -30 15 -60 27 -30 13 -93 42 -140 65
l-85 43 -2 79 c-1 44 0 99 3 122 5 41 6 42 62 58 31 9 66 22 77 29 11 7 40 18
65 26 25 7 52 19 60 26 8 6 33 17 55 24 22 7 49 19 60 26 11 8 25 14 31 14 7
0 34 10 61 22 26 12 54 20 60 19 29 -5 189 101 199 131 16 50 -28 117 -96 145
-19 8 -57 25 -85 38 -27 13 -61 26 -75 30 -42 12 -152 66 -146 72 6 6 29 8
246 18 68 3 126 8 128 10 7 6 76 -7 90 -18z m395 4 c4 0 7 -12 7 -26 0 -25 0
-25 -30 -10 -50 26 -37 46 23 36z m-948 -121 c33 -12 76 -25 95 -29 47 -11
198 -90 204 -108 11 -28 -24 -57 -106 -90 -46 -18 -89 -33 -97 -33 -8 0 -23
-8 -33 -17 -30 -27 -253 -101 -267 -88 -3 4 -6 35 -7 69 0 41 -6 71 -17 86
-14 21 -15 26 -3 39 10 11 12 21 5 33 -15 27 -5 125 16 147 15 17 27 20 84 16
36 -2 93 -14 126 -25z m858 -19 c23 -11 55 -23 69 -26 15 -4 32 -13 38 -20 13
-16 17 -414 4 -437 -5 -9 -27 -23 -49 -31 -22 -8 -71 -27 -110 -42 -112 -42
-105 -42 -106 -4 -1 85 -10 234 -14 237 -2 3 2 17 10 33 8 15 11 30 6 33 -11
7 -12 147 -1 161 11 15 18 75 8 81 -4 3 -3 14 3 26 9 18 17 20 55 14 24 -3 64
-14 87 -25z m400 -122 c26 -5 51 -8 55 -7 4 0 14 -1 22 -5 8 -3 29 -8 45 -10
51 -9 59 -12 96 -35 20 -12 46 -22 58 -22 11 0 21 -4 21 -8 0 -5 11 -14 25
-20 33 -15 23 -38 -23 -53 -21 -6 -73 -28 -117 -49 -83 -40 -332 -126 -340
-118 -12 12 -22 104 -14 125 12 32 11 80 -1 88 -6 4 -3 16 7 31 12 18 13 28 5
36 -15 15 2 46 31 58 22 8 41 6 130 -11z m-3329 -83 c-4 -17 -1 -27 12 -34 13
-7 16 -18 11 -46 -3 -19 -2 -38 4 -41 9 -6 10 -16 9 -85 -1 -60 -6 -75 -27
-78 -11 -2 -26 4 -33 13 -7 8 -18 15 -25 15 -8 0 -19 16 -25 36 -10 30 -9 38
5 54 11 12 13 20 6 25 -8 4 -8 12 0 26 6 11 12 30 15 42 2 12 11 27 20 34 9 6
13 17 9 23 -9 14 1 40 15 40 6 0 8 -10 4 -24z m626 -57 c0 -14 6 -19 17 -17
10 2 18 12 18 23 0 19 6 20 125 18 135 -2 152 -8 142 -58 -4 -22 -1 -25 22
-25 19 0 26 5 26 19 0 15 6 19 27 18 17 -1 28 3 28 11 0 21 27 32 78 32 41 0
47 -3 47 -21 0 -12 5 -19 13 -16 6 2 11 9 10 15 -2 6 5 11 15 11 9 0 44 0 77
1 33 1 63 1 68 0 4 -2 10 -3 15 -5 4 -1 21 -5 37 -9 48 -12 85 -28 85 -36 0
-13 -25 -29 -66 -44 -22 -7 -61 -23 -86 -34 -24 -12 -89 -33 -144 -48 -54 -14
-119 -32 -144 -39 -25 -8 -63 -16 -86 -20 -22 -3 -55 -9 -72 -14 -17 -5 -33
-7 -35 -5 -3 3 -14 -6 -25 -20 -11 -15 -25 -26 -31 -26 -26 0 -8 -27 37 -54
45 -28 46 -30 22 -37 -45 -13 -86 -10 -102 9 -9 9 -28 52 -43 95 -15 43 -32
80 -36 83 -5 3 -9 18 -9 34 0 16 -5 32 -10 35 -22 14 -45 93 -41 143 2 21 21
3 21 -19z m3090 -139 c0 -6 9 -23 20 -38 16 -21 47 -118 64 -197 13 -60 20
-82 29 -94 6 -7 12 -23 14 -35 2 -26 28 -105 55 -171 50 -122 75 -265 47 -265
-10 0 -66 30 -144 77 -11 7 -42 23 -70 37 -27 14 -66 34 -85 44 -49 28 -357
176 -400 193 -69 26 -73 36 -73 159 -1 127 -1 126 88 159 33 12 74 28 90 36
48 21 66 27 135 40 36 7 87 25 114 39 49 26 116 35 116 16z m-2076 -29 c6 -10
-53 -41 -78 -41 -9 0 -24 -4 -34 -9 -40 -23 -229 -71 -275 -71 -11 0 -15 5
-11 11 3 6 15 8 27 5 19 -5 56 8 67 24 7 10 70 42 70 35 0 -3 16 2 36 10 20 8
46 15 58 15 11 0 30 7 40 15 22 16 91 20 100 6z m71 -212 c0 -73 1 -73 -105
-42 -113 32 -141 45 -129 59 6 8 15 12 19 9 4 -3 21 2 36 10 16 8 34 15 40 15
6 0 17 6 24 14 15 19 70 25 95 10 17 -10 20 -22 20 -75z m3367 62 c-2 -8 2
-25 9 -38 10 -19 10 -26 -2 -38 -29 -28 -138 -75 -176 -75 -21 0 -59 -10 -83
-22 -35 -18 -48 -31 -57 -61 -21 -64 14 -95 122 -111 77 -12 148 -37 171 -62
21 -21 41 -88 34 -109 -2 -5 -4 -42 -4 -82 -1 -40 -5 -75 -8 -79 -10 -10 -205
95 -268 144 -14 10 -35 22 -47 26 -13 4 -23 11 -23 15 0 9 -64 38 -170 76 -41
15 -79 32 -84 36 -6 5 -19 9 -30 9 -10 0 -41 14 -68 31 -39 25 -48 37 -48 59
0 22 7 31 30 42 17 7 30 16 30 19 0 4 19 9 42 13 23 4 47 11 53 15 5 5 24 11
40 14 17 2 75 21 130 42 55 20 118 42 140 48 22 7 80 33 130 59 89 46 143 58
137 29z m-3996 -57 c-15 -58 39 -104 123 -104 25 0 96 -10 156 -21 61 -12 142
-25 180 -31 39 -6 94 -17 123 -24 47 -13 52 -17 52 -43 0 -15 3 -31 7 -35 8
-7 5 -90 -3 -119 -5 -16 -7 -16 -27 -2 -12 8 -29 15 -37 15 -9 0 -76 -25 -149
-55 -73 -30 -164 -63 -202 -74 -38 -11 -89 -33 -114 -50 -25 -17 -48 -31 -50
-31 -10 0 -118 -79 -171 -126 -82 -71 -104 -76 -104 -25 0 15 -7 43 -16 61
-12 23 -13 34 -5 39 6 4 8 18 5 31 -7 31 -13 81 -21 183 -4 57 -2 86 8 105 15
31 101 115 140 139 40 24 46 77 14 119 -14 18 -25 37 -25 42 0 14 72 39 98 34
19 -4 22 -9 18 -28z m1980 -4 c12 -64 13 -82 4 -106 l-9 -23 -42 18 c-23 11
-55 33 -72 50 -25 25 -29 33 -19 43 11 11 123 57 129 54 1 -1 5 -17 9 -36z
m-2801 -80 c6 -5 39 -8 74 -8 35 0 66 -4 70 -9 3 -5 29 -9 56 -10 70 -1 116
-13 123 -32 3 -9 10 -19 16 -23 17 -11 -17 -60 -58 -83 -19 -11 -40 -29 -46
-40 -6 -11 -22 -27 -34 -35 -13 -8 -49 -34 -80 -57 -30 -24 -58 -43 -61 -43
-3 0 -30 -20 -61 -45 -41 -34 -59 -43 -68 -35 -9 7 -16 60 -21 163 -10 198 -9
258 4 267 13 8 72 1 86 -10z m4825 -100 c0 -23 -22 -27 -39 -7 -13 16 -5 27
21 27 11 0 18 -7 18 -20z m-919 -171 c6 -11 7 -40 4 -67 -10 -72 -37 -196 -44
-205 -10 -10 -47 75 -65 148 -18 75 -30 181 -22 194 8 12 113 -46 127 -70z"/>
<path d="M5800 3230 c0 -11 -9 -29 -21 -41 l-21 -21 24 7 c12 4 25 9 26 11 8
6 8 64 0 64 -4 0 -8 -9 -8 -20z"/>
<path d="M5856 3215 c-3 -8 -1 -15 4 -15 6 0 10 7 10 15 0 8 -2 15 -4 15 -2 0
-6 -7 -10 -15z"/>
</g>
</svg>